<svg xmlns="http://www.w3.org/2000/svg" xmlns:xlink="http://www.w3.org/1999/xlink" width="16" height="16"><defs><path d="M8 1c.412 0 .68.168 1.018.508l5.726 5.725a.875.875 0 1 1-1.238 1.238L8 2.964 2.494 8.47a.875.875 0 1 1-1.238-1.238l5.746-5.746C7.335 1.155 7.588 1 8 1zm0 6c.412 0 .68.168 1.018.508l5.726 5.725a.875.875 0 1 1-1.238 1.238L8 8.964 2.494 14.47a.875.875 0 1 1-1.238-1.238l5.746-5.746C7.335 7.155 7.588 7 8 7z" id="A"/></defs><g fill="none"><path d="M-540-538H826v768H-540z"/><g opacity=".3"><path d="M0 0h16v16H0z"/><mask id="B" fill="#fff"><use xlink:href="#A"/></mask><use xlink:href="#A" fill="#000" fill-rule="nonzero"/><path d="M-82-57H98V73H-82z" mask="url(#B)" fill="#333"/></g></g></svg>